<?xml version="1.0" encoding="utf-8"?>
<!-- Svg Vector Icons : http://www.onlinewebfonts.com/icon -->
<!DOCTYPE svg PUBLIC "-//W3C//DTD SVG 1.1//EN" "http://www.w3.org/Graphics/SVG/1.1/DTD/svg11.dtd">
<svg version="1.1" xmlns="http://www.w3.org/2000/svg" xmlns:xlink="http://www.w3.org/1999/xlink" x="0px" y="0px" viewBox="0 0 1000 1000" enable-background="new 0 0 1000 1000" xml:space="preserve">
<metadata> Svg Vector Icons : http://www.onlinewebfonts.com/icon </metadata>
<g><path d="M907.7,659.6c4.7,3.7,9.3,7.5,13.8,11.2c30,24.8,42.1,38.6,43.3,40.1l0,0l0,0l0,0c0,0,2.6,3,5.2,6.1c1.4,1.6,2.7,3.2,3.7,4.4c0.6,0.8,1.2,1.4,1.5,1.9c0.8,1,1.5,2.1,2.1,3.1l6.4,9.3v0.9c12.6,25.2,3.8,58.4-4.1,75.2c-13.9,29.6-39.9,59.7-59.7,77.9c-39.8,36.7-94.3,78.9-162.5,78.9c-7.1,0-14.4-0.5-21.6-1.4c-49.7-6.2-125.6-36.1-208.2-82C437.9,835.4,351.4,772.8,284,708.8c-67.4-64-133.5-146.2-186-231.4c-48.5-78.6-80.1-151.1-86.7-198.7c-4.4-31.2,3.3-65.9,22.3-100.3c17-30.8,42.2-60.4,73.1-85.8c1.8-1.5,3.6-3,5.4-4.4c23.7-19.6,44.3-36.5,78.3-49.2c12-5.1,23.2-7.5,34.4-7.5c10.3,0,20.6,2.1,30.6,6.4l0.5,0.2c4.5,2,12,5.9,14,7c5.9,2.8,37.9,19.7,73.3,66.8c11.3,15.1,29.2,40.5,42.1,62.6c21.8,37.2,36.1,69.3,36.7,70.7l0.4,0.9l2.8,8.3c9.2,23.3,3.8,47.5-14.5,64.9c-1.1,1-2.3,2.3-2.3,2.3l-1.5,1.5l-1.1,0.8c-0.8,0.6-2.3,1.9-3.3,2.8c-2.8,2.4-3.6,3.1-4.6,3.8l-0.8,0.6c-11.7,7.7-15.9,10-20.4,12.4c-3,1.7-6.2,3.4-12.9,7.6l-0.3,0.2c-11.5,6.9-22.5,11.3-34.1,15.9c-9.1,3.6-19.5,7.8-32,13.9c-18,8.8-18.7,33.8-15,42.1c22.3,49.6,61.8,99.8,128.1,162.8c58.5,55.6,116,91.1,164.5,118.6c5.9,3.3,11.7,5,17.8,5c17.1,0,33.6-13.3,41-26.5c5.7-10.1,11-20.8,15.7-30.1c3.8-7.6,7.5-14.8,10.9-21.1l0.1-0.1c8.6-15.3,14.9-25.1,18.6-30.7c2.7-4,5.3-7.8,8.4-11c7.4-10.4,19-19.2,31.4-23.5c7-2.4,15-3.7,23.3-3.7c10.7,0,20.9,2.1,28.8,6l21.1,10.6l0,0c1.6,0.8,3.3,1.8,5.2,3c2.3,1.4,5.7,3.5,10,6.2c7.6,4.8,19.8,12.6,34.4,22.3c2.4,1.6,5,3.3,7.6,5.1 M718.7,619.2c-1.6,1.9-8.9,12-20.8,33.2c-3,5.5-6.5,12.4-10.1,19.6c-4.9,9.8-10.5,20.8-16.6,31.8c-13.5,24.1-43,48.5-78.5,48.5c-13.5,0-26.7-3.5-39-10.5c-50.8-28.8-111.1-66.1-172.9-124.8c-70.6-67-113.1-121.4-137.8-176.3c-6.4-14.2-7.4-33.2-2.7-50.8c5.7-21.5,19.2-38.4,38-47.5c14-6.8,25.1-11.3,34.9-15.2c10.7-4.3,19.2-7.7,27.7-12.7c7.7-4.8,11.5-6.9,14.9-8.7c3.7-2,6.9-3.8,16.5-10c0.5-0.5,1.3-1.1,2.1-1.8c2-1.7,3.3-2.8,4.2-3.6c0.5-0.5,1.2-1.2,1.9-1.9l0.3-0.3c5.7-5.4,7-11.3,4.1-18.4l-0.5-1.3l-2.3-6.9c-2.4-5.3-15.4-33.7-34-65.3c-9.9-16.9-25.4-39.9-39.4-58.5c-29.7-39.4-56-53.1-57.7-54l-0.9-0.5c-3-1.6-8.8-4.6-11.7-5.9c-4.7-1.9-9.2-2.9-13.7-2.9c-5.5,0-11.2,1.4-18,4.3l-1,0.4c-27.5,10.2-43.8,23.6-66.3,42.2c-1.8,1.5-3.6,3-5.4,4.5C79,170.9,47.6,228.6,53.8,272.7c5.8,41.4,36,109.4,80.8,182.1c50.6,82.1,114.2,161.2,179,222.8c64.9,61.6,148.3,122,234.9,170.1c76.8,42.7,148.9,71.4,192.7,76.9c5.4,0.7,10.9,1,16.2,1c41.6,0,82.7-20.8,133.4-67.5c16-14.8,38.7-40.5,49.9-64.5c6.5-14,8.4-32.5,3.9-38.9l-3.9-5.6V749l-0.4-0.6c-1.8-2.1-5.2-6.2-8.1-9.6c-0.1-0.1-10.9-12.5-38.1-34.9c-25.8-21.3-55-43.3-76.2-57.2c-24-15.8-42-27-45.8-29.3l-20.4-10.2c-1-0.5-4.5-1.5-9.6-1.5c-3.5,0-6.8,0.5-9.3,1.3c-4.9,1.7-9.4,6-10.9,8.5L718.7,619.2z"/></g>
</svg>