<?xml version="1.0" encoding="UTF-8"?> <svg xmlns="http://www.w3.org/2000/svg" width="100" height="26" viewBox="0 0 100 26" fill="none"> <path d="M53.1503 5.01471H72.4882V0.00538341H53.1503V5.01471ZM33.2801 0H28.3312V22.2134L30.497 25.9946H48.1907V20.9853H33.2801V0ZM17.5926 20.9853H4.94894V0H0V22.2134L2.16585 25.9946H20.381L22.5469 22.2134V0H17.5979V20.9853H17.5926ZM53.1503 15.5074H72.4882V10.498H53.1503V15.5074ZM53.1503 26H72.4882V20.9907H53.1503V26ZM95.0457 0V5.73648L88.7238 14.22L82.4021 5.73648V0H77.4531L77.4585 7.51937L86.0844 18.7984V25.9946H91.3687V18.7984L100 7.34162V0H95.0457Z" fill="white"></path> </svg> 