<svg width="39" height="45" viewBox="0 0 39 45" fill="none" xmlns="http://www.w3.org/2000/svg">
<path d="M22.5249 32.7258H16.4716C15.8613 32.7258 15.367 32.2319 15.367 31.6224C15.367 31.0125 15.8613 30.519 16.4716 30.519H22.521C23.1314 30.519 23.6252 31.0125 23.6252 31.6224C23.6252 32.2319 23.1314 32.7258 22.5249 32.7258Z" fill="#26AAD4"/>
<path d="M19.9417 36.0328H19.0583C18.448 36.0328 17.9541 35.5393 17.9541 34.9293C17.9541 34.3194 18.448 33.8259 19.0583 33.8259H19.9417C20.552 33.8259 21.0459 34.3194 21.0459 34.9293C21.0459 35.5393 20.552 36.0328 19.9417 36.0328Z" fill="#26AAD4"/>
<path d="M23.1499 29.419H15.8462C15.2363 29.419 14.742 28.925 14.742 28.3155V25.2591C12.4698 23.6992 11.0809 21.0991 11.0809 18.327C11.0809 13.6883 14.858 9.91364 19.5 9.91364C24.142 9.91364 27.9152 13.6883 27.9152 18.327C27.9152 21.0991 26.5263 23.6992 24.2541 25.2591V28.3155C24.2541 28.925 23.7603 29.419 23.1499 29.419ZM16.9509 27.2155H22.0491V24.653C22.0491 24.2604 22.2588 23.8935 22.5995 23.6992C24.5164 22.5918 25.7103 20.5342 25.7103 18.327C25.7103 14.9041 22.9252 12.1208 19.5 12.1208C16.0748 12.1208 13.2892 14.9041 13.2892 18.327C13.2892 20.5305 14.4797 22.5879 16.4005 23.6992C16.7412 23.8974 16.9509 24.2604 16.9509 24.653V27.2155Z" fill="#26AAD4"/>
<path d="M19.5 45L0 33.7509V11.249L19.5 0L39 11.249V33.7509L19.5 45ZM2.20496 32.4755L19.4961 42.4521L36.7877 32.4755V12.5247L19.4961 2.54759L2.20496 12.5247V32.4755Z" fill="#26AAD4"/>
</svg>
