<svg width="39" height="45" viewBox="0 0 39 45" fill="none" xmlns="http://www.w3.org/2000/svg">
<path d="M15.094 19.9355C14.4836 19.9355 13.9898 19.4417 13.9898 18.832V10.355C13.9898 9.7452 14.4836 9.25136 15.094 9.25136C15.7043 9.25136 16.1982 9.7452 16.1982 10.355V18.832C16.1982 19.4417 15.7043 19.9355 15.094 19.9355Z" fill="#26AAD4"/>
<path d="M23.8987 19.9355C23.2884 19.9355 22.7945 19.4417 22.7945 18.832V10.355C22.7945 9.7452 23.2884 9.25136 23.8987 9.25136C24.5091 9.25136 25.0029 9.7452 25.0029 10.355V18.832C25.0029 19.4417 24.5091 19.9355 23.8987 19.9355Z" fill="#26AAD4"/>
<path d="M19.4961 25.0642C19.3655 25.0642 19.2343 25.0418 19.1105 24.997L11.388 22.1202C10.9575 21.9595 10.6689 21.5478 10.6689 21.0877V16.4565C10.6689 15.8467 11.1633 15.3528 11.7736 15.3528H27.2191C27.8294 15.3528 28.3233 15.8467 28.3233 16.4565V21.0877C28.3233 21.5478 28.0352 21.9595 27.6047 22.1202L19.8817 24.997C19.7584 25.0418 19.6272 25.0642 19.4961 25.0642ZM12.8778 20.3171L19.4961 22.7823L26.1149 20.3171V17.5563H12.8778V20.3171ZM27.2191 21.084H27.223H27.2191Z" fill="#26AAD4"/>
<path d="M19.4966 35.812C16.8646 35.812 14.7269 33.6724 14.7269 31.0461C14.7269 28.7978 16.2918 26.9086 18.3919 26.4073V23.9608C18.3919 23.3513 18.8862 22.8573 19.4966 22.8573C20.1064 22.8573 20.6008 23.3513 20.6008 23.9608V27.3802C20.6008 27.9901 20.1064 28.4836 19.4966 28.4836C18.0853 28.4836 16.9318 29.6323 16.9318 31.0461C16.9318 32.4603 18.0814 33.6086 19.4966 33.6086C20.9079 33.6086 22.0608 32.4603 22.0608 31.0461C22.0608 30.4367 22.5547 29.9427 23.165 29.9427C23.7754 29.9427 24.2692 30.4367 24.2692 31.0461C24.2692 33.6724 22.1281 35.812 19.4966 35.812Z" fill="#26AAD4"/>
<path d="M19.4961 45L0 33.7509V11.249L19.5 0L39 11.249V33.7509L19.4961 45ZM2.20496 32.4755L19.4961 42.4521L36.7877 32.4755V12.5247L19.4961 2.54759L2.20496 12.5247V32.4755Z" fill="#26AAD4"/>
</svg>
