<svg width="39" height="45" viewBox="0 0 39 45" fill="none" xmlns="http://www.w3.org/2000/svg">
<path d="M19.5 45L0 33.7509V11.249L19.5 0L39 11.249V33.7509L19.5 45ZM2.20496 32.4755L19.4961 42.4521L36.7877 32.4755V12.521L19.4961 2.54383L2.20496 12.521V32.4755Z" fill="#26AAD4"/>
<path d="M16.0373 8.87631L15.5946 9.01676C15.2563 9.11853 14.9628 9.33152 14.7625 9.6207C14.5621 9.90993 14.4671 10.2581 14.4929 10.608C14.5187 10.958 14.6635 11.2888 14.9043 11.5461C15.1447 11.8034 15.4659 11.9718 15.816 12.0237L16.0592 12.0676C17.8386 12.3765 19.4659 13.2591 20.688 14.5785C20.8874 14.8068 20.883 14.8815 20.688 15.0965C20.5935 15.1849 20.493 15.267 20.3873 15.3424L20.144 15.5355C20.0236 15.6337 19.9251 15.7562 19.8554 15.8947C19.7862 16.0333 19.7472 16.1848 19.7408 16.3394C19.7345 16.4941 19.7613 16.6483 19.8193 16.7919C19.8773 16.9355 19.9651 17.0654 20.0777 17.1729L23.3698 20.3159C23.5809 20.5175 23.8636 20.628 24.1566 20.623C24.4491 20.6181 24.728 20.4982 24.9322 20.2896L25.0955 20.114C25.2106 19.9911 25.3349 19.8594 25.4675 19.7365C25.6001 19.6136 25.6093 19.6355 25.7288 19.6794L25.7819 19.7058C25.7863 19.7393 25.7863 19.7732 25.7819 19.8067C25.7902 19.9529 25.7902 20.0995 25.7819 20.2457C25.7819 20.3554 25.7819 20.4652 25.7819 20.5749C25.7249 20.9774 25.7517 21.3872 25.8609 21.7789C25.9696 22.1709 26.1578 22.5363 26.4147 22.853C26.7111 23.1867 27.0207 23.4853 27.3395 23.7971C27.5262 23.989 27.7495 24.142 27.9971 24.2462C28.2448 24.3505 28.511 24.4046 28.7796 24.4046C29.0487 24.4046 29.3148 24.3505 29.5625 24.2462C29.8101 24.142 30.0334 23.989 30.2201 23.7971C30.4107 23.6124 30.6009 23.4195 30.791 23.2305L31.6231 22.3877L33.8798 20.1052C34.2556 19.7625 34.4853 19.2902 34.5218 18.785C34.5579 18.2798 34.398 17.78 34.0748 17.388C33.6902 16.9666 33.2821 16.5666 32.8531 16.1896C32.5518 15.908 32.1638 15.7349 31.7514 15.6979C31.2185 15.6529 30.6837 15.6411 30.1494 15.6628C30.0563 15.6628 29.8443 15.6628 29.7955 15.5838C29.7721 15.5289 29.7653 15.4685 29.7765 15.4099C29.7872 15.3514 29.8155 15.2973 29.8574 15.2546C30.0022 15.1037 30.1143 14.9254 30.1879 14.7302C30.2611 14.5351 30.2937 14.3273 30.284 14.1192C30.2742 13.9112 30.2216 13.7074 30.1299 13.52C30.0388 13.3326 29.9096 13.1656 29.7512 13.029L29.2334 12.5022C28.5738 11.835 27.906 11.1853 27.2464 10.5049C25.8468 9.14557 24.0157 8.30944 22.0642 8.13884C20.6325 7.9863 19.1851 8.07088 17.7806 8.38905C17.179 8.52073 16.5994 8.6963 16.0373 8.86754V8.87631ZM21.8166 10.3161C23.2742 10.4348 24.6446 11.0561 25.6888 12.072C26.3479 12.7261 27.0163 13.3889 27.6534 14.0518L27.8792 14.28C27.6749 14.6397 27.5652 15.0447 27.5608 15.4575C27.5559 15.8704 27.6564 16.2776 27.8528 16.6417C28.0898 17.0618 28.4471 17.4025 28.8795 17.6206C29.3124 17.8387 29.8004 17.9242 30.282 17.8665C30.6657 17.852 31.0499 17.8594 31.4325 17.8884C31.6982 18.1386 31.9551 18.3845 32.1896 18.6347C31.4593 19.3765 30.7247 20.114 29.9769 20.8515L29.1403 21.6987L28.6981 22.1378C28.4456 21.8918 28.2068 21.6548 27.9854 21.409C27.8879 21.3036 27.8923 21.0359 27.906 20.6671C27.906 20.5793 27.906 20.4915 27.906 20.4081C27.9196 20.1815 27.9196 19.9543 27.906 19.7277C27.9021 19.2723 27.7573 18.829 27.4916 18.4577C27.2254 18.0864 26.851 17.8049 26.4191 17.6514C26.1305 17.5363 25.8224 17.4767 25.5119 17.4758C24.9683 17.4778 24.4428 17.6671 24.025 18.0113L22.3655 16.4267C22.7677 15.9679 22.9807 15.3758 22.9627 14.7682C22.9447 14.1605 22.6965 13.5819 22.268 13.1475C21.2121 11.9668 19.8793 11.0623 18.387 10.5137C19.4937 10.2818 20.6305 10.2255 21.7547 10.3469L21.8166 10.3161ZM18.9798 18.3011C18.7736 18.0963 18.4933 17.9812 18.2013 17.9812C17.9093 17.9812 17.629 18.0963 17.4223 18.3011L7.62938 28.222C7.40415 28.4198 7.22183 28.6609 7.09361 28.9313C6.9654 29.2012 6.89423 29.4945 6.88448 29.7926C6.87473 30.0908 6.92591 30.3879 7.0356 30.6661C7.14577 30.9438 7.31152 31.1966 7.5231 31.4086C7.93016 31.848 8.346 32.2475 8.76184 32.6645L9.09382 32.9977C9.28736 33.2028 9.5199 33.3674 9.77827 33.4819C10.0366 33.5969 10.3155 33.6588 10.5987 33.6651C10.7679 33.6656 10.9361 33.6417 11.0984 33.595C11.5703 33.4727 12.0023 33.2306 12.3508 32.8925L22.2593 22.9324C22.463 22.7243 22.5776 22.4457 22.5776 22.1553C22.5761 22.0106 22.5459 21.868 22.4879 21.7354C22.4304 21.6027 22.3465 21.4828 22.2417 21.3826L18.9798 18.3011ZM10.7226 31.3735C10.6826 31.409 10.6377 31.4388 10.5895 31.4617L10.2711 31.1411C9.86846 30.7372 9.4614 30.3334 9.0675 29.9208V29.8988C9.09334 29.8555 9.12454 29.816 9.16013 29.78L18.2408 20.632L19.8651 22.2036C18.0156 24.0645 13.3156 28.7881 10.7401 31.3735" fill="#26AAD4"/>
</svg>
