<svg width="39" height="45" viewBox="0 0 39 45" fill="none" xmlns="http://www.w3.org/2000/svg">
<path d="M12.7915 19.8628C10.6202 19.8628 8.85349 18.0971 8.85349 15.9276C8.85349 13.758 10.6202 11.9925 12.7915 11.9925C14.9628 11.9925 16.73 13.758 16.73 15.9276C16.73 18.0971 14.9589 19.8628 12.7915 19.8628ZM12.7915 14.2032C11.837 14.2032 11.0624 14.9775 11.0624 15.9313C11.0624 16.8852 11.837 17.6595 12.7915 17.6595C13.746 17.6595 14.5212 16.8852 14.5212 15.9313C14.5173 14.9775 13.7426 14.2032 12.7915 14.2032Z" fill="#26AAD4"/>
<path d="M21.2706 19.8628C19.0993 19.8628 17.3326 18.0971 17.3326 15.9276C17.3326 13.758 19.0993 11.9925 21.2706 11.9925C23.4419 11.9925 25.2086 13.758 25.2086 15.9276C25.2086 18.0971 23.4419 19.8628 21.2706 19.8628ZM21.2706 14.2032C20.3161 14.2032 19.541 14.9775 19.541 15.9313C19.541 16.8852 20.3161 17.6595 21.2706 17.6595C22.2251 17.6595 23.0003 16.8852 23.0003 15.9313C23.0003 14.9775 22.2251 14.2032 21.2706 14.2032Z" fill="#26AAD4"/>
<path d="M23.6179 32.3075H10.4145C9.80412 32.3075 9.31029 31.814 9.31029 31.2042V21.8826C9.31029 21.2729 9.80412 20.7791 10.4145 20.7791H23.6179C24.2283 20.7791 24.7221 21.2729 24.7221 21.8826V31.2042C24.7221 31.814 24.2283 32.3075 23.6179 32.3075ZM11.5187 30.1008H22.5171V22.9859H11.5187V30.1008Z" fill="#26AAD4"/>
<path d="M29.9218 32.7829C29.7122 32.7829 29.5025 32.723 29.3192 32.6032L23.0154 28.5036C22.7009 28.3014 22.5137 27.9536 22.5137 27.5795V25.5112C22.5137 25.137 22.7009 24.7892 23.0154 24.5871L29.3192 20.4874C29.66 20.2668 30.0904 20.2481 30.4497 20.4426C30.8056 20.6371 31.0264 21.0074 31.0264 21.4114V31.6796C31.0264 32.0834 30.8056 32.4575 30.4497 32.6485C30.2815 32.7381 30.1017 32.7829 29.9218 32.7829ZM24.7221 26.9813L28.8176 29.6444V23.4423L24.7221 26.1059V26.9813Z" fill="#26AAD4"/>
<path d="M19.5 45L0 33.7479V11.2481L19.5 0L39 11.2481V33.7479L19.5 45ZM2.20496 32.476L19.4961 42.4523L36.7877 32.476V12.5236L19.4961 2.54736L2.20496 12.5236V32.476Z" fill="#26AAD4"/>
</svg>
