<svg width="39" height="45" viewBox="0 0 39 45" fill="none" xmlns="http://www.w3.org/2000/svg">
<path d="M19.5 45L0 33.7509V11.249L19.5 0L39 11.249V33.7509L19.5 45ZM2.20496 32.4755L19.4961 42.4521L36.7877 32.4755V12.521L19.4961 2.54383L2.20496 12.521V32.4755Z" fill="#26AAD4"/>
<path fill-rule="evenodd" clip-rule="evenodd" d="M10.0796 14.6571C9.50918 14.7497 8.85349 15.2112 8.55661 15.7287C8.26703 16.2345 8.27873 15.9515 8.29384 21.9522L8.30749 27.4309L8.43424 27.6384C8.69554 28.0656 9.07774 28.2941 9.57694 28.3214L9.89382 28.3384L9.92794 28.6673C10.0264 29.6294 10.6153 30.4679 11.4821 30.88C12.6165 31.4203 13.8811 31.2176 14.7664 30.3539C15.2812 29.8521 15.5054 29.3766 15.5966 28.5932L15.6273 28.3287H20.2883H24.9493V28.5869C24.9493 29.1905 25.2623 29.8745 25.758 30.3558C26.3274 30.9087 26.9475 31.1567 27.7587 31.1572C28.606 31.1572 29.2573 30.8878 29.8306 30.3008C30.2913 29.8287 30.6116 29.0955 30.6145 28.5065L30.6155 28.3389L31.1318 28.3219C31.5924 28.3068 31.6778 28.2897 31.9278 28.1665C32.2384 28.0125 32.5187 27.7012 32.6094 27.4099C32.6459 27.291 32.663 26.5442 32.6625 25.0545L32.662 22.8729L32.5494 22.643C32.349 22.2343 32.1516 22.0998 31.1332 21.6771L30.2109 21.294L29.4655 19.8987C29.056 19.1313 28.6333 18.3944 28.5266 18.261C28.3111 17.9917 27.9542 17.7427 27.5637 17.5893C27.3215 17.4939 27.2205 17.4871 25.8492 17.4728L24.3921 17.4577L24.3633 16.9197C24.3316 16.3236 24.2341 15.9795 23.9948 15.6187C23.6676 15.1258 23.0768 14.7468 22.4918 14.6541C22.1505 14.6001 10.4125 14.6029 10.0796 14.6571ZM22.5922 15.8365C22.815 15.9528 22.9983 16.1331 23.1226 16.3587C23.2065 16.5109 23.2118 16.7032 23.2245 19.8691L23.2377 23.2183H16.3083H9.37902V20.048C9.37902 18.1144 9.39754 16.7809 9.42679 16.6297C9.47749 16.367 9.65592 16.0794 9.85774 15.9347C10.1722 15.7096 9.94598 15.7168 16.3785 15.7273L22.4016 15.7371L22.5922 15.8365ZM27.2123 18.6547C27.5116 18.7861 27.6842 18.989 28.0122 19.5949C28.1799 19.904 28.4369 20.3796 28.5841 20.6518L28.8507 21.1467H26.6146H24.3779V19.8576V18.5685L25.6991 18.5695C26.8759 18.5704 27.0416 18.5797 27.2123 18.6547ZM30.5156 22.6035C30.9767 22.7969 31.4018 23.0054 31.4608 23.0663L31.5676 23.1774V25.1037C31.5676 27.4406 31.6329 27.2399 30.87 27.2613L30.3537 27.2759L30.2348 27.0553C30.0812 26.7708 29.6298 26.305 29.3246 26.1155C29.0097 25.9202 28.5446 25.7599 28.1253 25.7024C27.068 25.5577 25.897 26.1053 25.3554 26.9987L25.2047 27.2467L24.7913 27.2604L24.3779 27.2735V24.7627V22.2518H27.028H29.678L30.5156 22.6035ZM23.2352 25.7735V27.2696H19.2904H15.346L15.211 27.028C15.0374 26.7177 14.5241 26.2232 14.1882 26.0429C13.4882 25.6673 12.6004 25.5855 11.8311 25.8252C11.2486 26.0064 10.628 26.5018 10.3175 27.0328L10.1736 27.2798L9.87091 27.2608C9.38048 27.2306 9.40486 27.3115 9.38877 25.68L9.37512 24.2774H16.3049H23.2352V25.7735ZM13.3819 26.9174C13.9133 27.1283 14.2725 27.5337 14.4115 28.0773C14.5977 28.8061 14.1902 29.5973 13.4613 29.9222C13.2083 30.0352 13.1045 30.0547 12.7593 30.0547C12.4205 30.0552 12.3108 30.0352 12.0846 29.9329C10.9107 29.4005 10.7182 27.9565 11.7127 27.1468C12.1266 26.8102 12.8598 26.7094 13.3819 26.9174ZM28.5597 26.9924C29.72 27.5926 29.777 29.1432 28.6631 29.8238C27.8138 30.3431 26.6755 30.0124 26.2431 29.1204C26.1329 28.8938 26.1159 28.7988 26.1159 28.4208C26.1159 27.9248 26.2085 27.6764 26.5176 27.3461C26.8881 26.9491 27.2478 26.8058 27.8299 26.8238C28.2121 26.8351 28.2911 26.8536 28.5597 26.9924Z" fill="#26AAD4"/>
</svg>
