<svg width="39" height="45" viewBox="0 0 39 45" fill="none" xmlns="http://www.w3.org/2000/svg">
<path d="M26.111 32C25.7867 32 25.4659 31.8607 25.2473 31.5896C24.8622 31.1115 24.9339 30.4147 25.4134 30.0269C27.5484 28.3024 28.7746 25.7418 28.7746 23.0009C28.7746 20.2636 27.5484 17.7032 25.4134 15.9749C24.9339 15.5908 24.8622 14.8905 25.2473 14.4123C25.632 13.9341 26.3335 13.8626 26.8125 14.2466C29.4722 16.3966 31 19.5858 31 22.9969C31 26.4087 29.4722 29.5978 26.8125 31.748C26.6052 31.9171 26.3561 32 26.111 32Z" fill="#26AAD4"/>
<path d="M23.9747 29C23.6903 29 23.4088 28.8603 23.217 28.5882C22.8791 28.1086 22.942 27.4095 23.3623 27.0203C24.4316 26.031 25.0471 24.565 25.0471 23.001C25.0471 21.4332 24.4316 19.9712 23.3623 18.9814C22.942 18.5961 22.8791 17.8934 23.217 17.4137C23.5545 16.9339 24.17 16.8621 24.5902 17.2474C26.1194 18.6603 27 20.757 27 23.001C27 25.2448 26.1229 27.3416 24.5902 28.7545C24.4083 28.9169 24.1898 29 23.9747 29Z" fill="#26AAD4"/>
<path d="M20.8703 34C20.6321 34 20.394 33.9248 20.1943 33.7814L12.2953 28.0291H9.13323C8.50683 28.0291 8 27.5315 8 26.9166V19.0826C8 18.4678 8.50683 17.9698 9.13323 17.9698H12.2953L20.1943 12.2178C20.5361 11.9688 20.9974 11.9311 21.3776 12.116C21.7619 12.3046 22 12.6893 22 13.108V32.8801C22 33.2986 21.7579 33.6832 21.3776 33.8718C21.22 33.9627 21.0434 34 20.8703 34ZM10.2665 25.808H12.668C12.9097 25.808 13.1478 25.8831 13.3439 26.0265L19.737 30.681V15.3258L13.3439 19.9803C13.1478 20.1236 12.9137 20.199 12.668 20.199H10.2665V25.808Z" fill="#26AAD4"/>
<path d="M19.5 45L0 33.7509V11.249L19.5 0L39 11.249V33.7509L19.5 45ZM2.20496 32.4755L19.4961 42.4521L36.7877 32.4755V12.521L19.4961 2.54383L2.20496 12.521V32.4755Z" fill="#26AAD4"/>
</svg>
