<svg width="39" height="45" viewBox="0 0 39 45" fill="none" xmlns="http://www.w3.org/2000/svg">
<path d="M19.5 45L0 33.7509V11.249L19.5 0L39 11.249V33.7509L19.5 45ZM2.20496 32.4755L19.4961 42.4521L36.7877 32.4755V12.521L19.4961 2.54383L2.20496 12.521V32.4755Z" fill="#26AAD4"/>
<path d="M16.2372 9.19875C16.0851 9.61844 16.0202 10.065 16.047 10.5108C16.0734 10.9566 16.1909 11.3922 16.3922 11.7906C16.5175 12.0432 16.6657 12.2839 16.8348 12.5096L16.9674 12.7004C17.0469 12.8203 17.0606 12.8691 17.0381 12.8425C16.8641 12.8807 16.6857 12.8986 16.5072 12.8957C15.209 12.8957 13.9123 12.8957 12.6175 12.8957C12.0339 12.8608 11.4548 13.0165 10.9668 13.3395L10.6217 13.6591L10.4934 13.8144C10.1849 14.3022 10.0391 14.8757 10.0771 15.4521V19.6461C10.0654 20.0714 10.1566 20.4933 10.3428 20.8755C10.5159 21.2403 10.824 21.5229 11.2018 21.663C11.5796 21.8031 11.9969 21.7897 12.365 21.6255C12.6238 21.5095 12.8661 21.3603 13.0865 21.1817C13.318 20.9767 13.591 20.8252 13.8874 20.7379C14.1009 20.6782 14.3257 20.6688 14.5436 20.7104C14.7615 20.7519 14.9672 20.8434 15.1442 20.9775C15.425 21.2041 15.6249 21.5154 15.7151 21.8652C15.8072 22.1392 15.8374 22.4306 15.8028 22.7175C15.7687 23.0049 15.6702 23.2807 15.5162 23.5252C15.423 23.6933 15.2963 23.8404 15.1442 23.9573C14.9916 24.0738 14.8171 24.1581 14.6309 24.2038C14.4363 24.2506 14.2345 24.2579 14.0371 24.2263C13.8396 24.1941 13.6505 24.1235 13.4804 24.0178C13.3697 23.9466 13.2678 23.8711 13.1659 23.7912L12.8076 23.5296C12.6024 23.3956 12.3791 23.2924 12.1436 23.2232C11.8165 23.1287 11.467 23.1477 11.1516 23.2763C10.8362 23.4049 10.5734 23.6363 10.4047 23.9335C10.1771 24.3232 10.062 24.769 10.0727 25.2206V27.5502C10.0727 28.1937 10.0727 28.8329 10.0727 29.4721C10.044 30.0498 10.199 30.6218 10.5154 31.1055L10.8342 31.4514L10.9931 31.58C11.4826 31.9035 12.0632 32.0589 12.6482 32.0238H16.4804C16.6774 32.0121 16.8743 32.0316 17.0649 32.0818C17.0459 32.1295 17.0206 32.1744 16.9894 32.2148L16.8568 32.4014C16.6881 32.6177 16.5399 32.8496 16.4141 33.0937C16.1333 33.6174 16.0046 34.2093 16.0431 34.8026C16.0817 35.3955 16.2854 35.966 16.6311 36.4488C16.9343 36.8862 17.3389 37.2433 17.8098 37.4898C18.2803 37.7363 18.8039 37.865 19.3347 37.8645H19.4985C20.0411 37.8762 20.5798 37.7656 21.0741 37.5405C21.4705 37.3598 21.8264 37.1006 22.1198 36.7781C22.4138 36.4556 22.639 36.0766 22.7823 35.6644C22.9262 35.2518 22.9847 34.8148 22.9549 34.3788C22.9252 33.9433 22.8077 33.518 22.6098 33.1292C22.4825 32.8773 22.3343 32.6372 22.1671 32.4102L22.0389 32.2236L21.9546 32.0906C22.0994 32.0521 22.2476 32.0316 22.3972 32.0287C23.7247 32.0287 25.0526 32.0287 26.3801 32.0287C26.9549 32.0613 27.5252 31.9055 28.004 31.5849L28.3491 31.2697L28.4729 31.1187C28.7903 30.632 28.9453 30.0571 28.9156 29.4764C28.9156 28.3672 28.9156 27.2589 28.9156 26.1525V25.2649C28.9209 24.8893 28.8454 24.5171 28.6943 24.1732C28.6094 23.971 28.4841 23.7878 28.3267 23.6353C28.1692 23.4828 27.983 23.364 27.7782 23.2855C27.5759 23.213 27.3609 23.1827 27.1469 23.1954C26.9324 23.2086 26.7228 23.2646 26.5302 23.3611C26.3045 23.4682 26.0934 23.6037 25.9019 23.7649C25.6703 23.9685 25.3968 24.1201 25.1009 24.2087C24.8879 24.2682 24.6641 24.2774 24.4467 24.236C24.2297 24.1946 24.025 24.103 23.8485 23.969C23.5979 23.7722 23.4112 23.5048 23.3132 23.2013C23.2035 22.9226 23.1587 22.623 23.1816 22.3248C23.2045 22.0262 23.2952 21.7371 23.4458 21.4791C23.5326 21.3074 23.654 21.1555 23.8012 21.0325C23.9489 20.9096 24.1205 20.8184 24.3043 20.7646C24.6802 20.658 25.0824 20.7042 25.4241 20.8932C25.5455 20.966 25.662 21.0461 25.7736 21.1329C25.8755 21.2084 25.973 21.2838 26.0793 21.3548C26.2587 21.4807 26.4517 21.5864 26.6546 21.6699C27.0202 21.8218 27.4302 21.8278 27.8002 21.6868C28.1702 21.5457 28.4729 21.2682 28.6455 20.911C28.8347 20.5327 28.9273 20.1134 28.9156 19.6905V15.5098C28.9156 15.3544 28.9156 15.1991 28.9156 15.066C28.8902 14.6494 28.7562 14.2467 28.5261 13.8987L28.4598 13.7967L28.1902 13.526L28.0308 13.3928C27.5403 13.0679 26.9578 12.9121 26.3713 12.949C25.0434 12.949 23.7159 12.949 22.3884 12.949C22.2393 12.9528 22.0901 12.9349 21.9458 12.8957C21.9984 12.8081 22.056 12.7236 22.1184 12.6428C22.1847 12.5495 22.2558 12.4563 22.3178 12.3587C22.6658 11.8777 22.8789 11.3113 22.933 10.7193C22.9876 10.1273 22.8823 9.53148 22.6273 8.99458C22.3021 8.3066 21.7415 7.75854 21.0473 7.45012C20.571 7.22919 20.0533 7.11212 19.5288 7.10676C19.0037 7.1014 18.4836 7.20785 18.0029 7.41908C17.5983 7.59096 17.2322 7.84365 16.928 8.16182C16.6238 8.48003 16.3873 8.85695 16.2328 9.26978L16.2372 9.19875ZM18.3037 10.0375C18.3554 9.90397 18.4343 9.78276 18.5357 9.68182C18.6371 9.58088 18.759 9.5025 18.8926 9.45173C19.0915 9.36219 19.3074 9.31776 19.5254 9.32156C19.7433 9.32541 19.9578 9.37744 20.1537 9.47395C20.3673 9.56261 20.5398 9.72908 20.6359 9.93992C20.7305 10.1336 20.766 10.3508 20.7387 10.5646C20.711 10.7784 20.6217 10.9794 20.4809 11.1426C20.4414 11.2048 20.3926 11.2669 20.3483 11.3291C20.2308 11.4706 20.1216 11.6188 20.0206 11.7729C19.8583 12.0625 19.7618 12.3846 19.7379 12.7161C19.714 13.0476 19.7637 13.3802 19.8837 13.6902C20.0124 13.9953 20.2074 14.2677 20.455 14.4874C20.7022 14.707 20.9957 14.8683 21.313 14.9594C21.6596 15.0602 22.0189 15.111 22.3797 15.1104C23.7071 15.1104 25.0346 15.1104 26.3621 15.1104C26.4727 15.1021 26.5839 15.1021 26.694 15.1104C26.694 15.2213 26.694 15.3323 26.694 15.4654V19.0159L26.5127 18.9049C26.0871 18.6633 25.6181 18.5089 25.1326 18.451C24.647 18.3931 24.1551 18.4328 23.6852 18.5677C23.2143 18.7015 22.775 18.9297 22.3948 19.2387C22.0145 19.5477 21.7006 19.9309 21.4724 20.3651C21.1731 20.902 20.9952 21.4985 20.9518 22.112C20.9079 22.7258 20.9996 23.3416 21.2199 23.9154C21.4641 24.6223 21.9126 25.2405 22.5079 25.6907C22.9413 26.0171 23.4424 26.2412 23.9738 26.3474C24.5057 26.4536 25.0541 26.4385 25.5791 26.3035C25.9691 26.2095 26.3416 26.0522 26.6809 25.8373V26.0945C26.6809 27.2087 26.6809 28.3136 26.6809 29.4321C26.6809 29.5875 26.6809 29.6806 26.6809 29.7342C26.5853 29.7405 26.4888 29.7405 26.3933 29.7342C25.0658 29.7342 23.7071 29.7342 22.3616 29.7342C22.0014 29.7342 21.6426 29.7834 21.2955 29.8803C20.8177 30.0123 20.3994 30.3046 20.1104 30.7085C19.8213 31.1124 19.6789 31.6034 19.7067 32.0993C19.7442 32.5617 19.9061 33.005 20.1757 33.3821L20.3351 33.6086C20.4336 33.7435 20.5238 33.8843 20.6052 34.03C20.6715 34.1552 20.7119 34.2921 20.7241 34.4334C20.7363 34.5746 20.7197 34.7164 20.6759 34.8513C20.6256 34.9868 20.5491 35.111 20.4501 35.2157C20.3512 35.321 20.2322 35.4053 20.1006 35.4637C19.8666 35.5529 19.6155 35.5894 19.3659 35.5699C19.1792 35.5782 18.9935 35.5383 18.8263 35.4545C18.6591 35.3707 18.5157 35.2455 18.41 35.091C18.292 34.9337 18.2247 34.7437 18.2179 34.5469C18.2106 34.3501 18.2637 34.1557 18.3705 33.99C18.4412 33.8595 18.5226 33.7348 18.6137 33.6174L18.7775 33.3821C19.0593 32.9933 19.2241 32.531 19.2509 32.0506C19.2719 31.5786 19.1378 31.1128 18.8692 30.7251C18.6006 30.3368 18.212 30.0479 17.764 29.9027C17.3355 29.7629 16.8865 29.7001 16.4366 29.7161H12.5951C12.4878 29.722 12.3796 29.722 12.2723 29.7161C12.265 29.6187 12.265 29.5208 12.2723 29.4233C12.2723 28.7798 12.2723 28.1319 12.2723 27.4883V25.8149C12.693 26.0814 13.163 26.2602 13.6539 26.3406C14.1448 26.4214 14.6474 26.4029 15.131 26.2855C15.6063 26.1686 16.0529 25.9557 16.4434 25.6595C16.8339 25.3633 17.1595 24.9906 17.4013 24.5634C17.7084 24.0509 17.902 23.4785 17.9693 22.8841C18.0365 22.2898 17.9756 21.6881 17.7903 21.1196C17.5573 20.3314 17.0815 19.6371 16.4322 19.1357C15.8316 18.6934 15.112 18.4432 14.3671 18.4179C13.6227 18.3925 12.888 18.5932 12.2592 18.9937V18.9538C12.2592 17.7688 12.2592 16.5794 12.2592 15.4032C12.2592 15.2479 12.2592 15.1547 12.2592 15.1015C12.3635 15.0953 12.4683 15.0953 12.5731 15.1015C13.8801 15.1015 15.1842 15.1015 16.4853 15.1015C16.8246 15.1012 17.1624 15.064 17.4939 14.9905C17.9985 14.8861 18.4499 14.606 18.7683 14.1999C19.0866 13.7937 19.2509 13.2877 19.2333 12.7715C19.206 12.2919 19.0437 11.8301 18.7639 11.44C18.7107 11.3601 18.6537 11.2847 18.5957 11.2048C18.5016 11.0752 18.4143 10.9404 18.3349 10.8009C18.2661 10.6702 18.2247 10.5268 18.2135 10.3795C18.2018 10.2322 18.2208 10.0841 18.2686 9.94436" fill="#26AAD4"/>
</svg>
