<svg width="39" height="45" viewBox="0 0 39 45" fill="none" xmlns="http://www.w3.org/2000/svg">
<path d="M19.6384 36.6763C16.6847 36.6763 13.9557 35.3332 12.1514 32.9914C12.129 32.9651 12.1105 32.9353 12.0915 32.9051L7.44607 25.5392C6.49106 24.0728 6.91031 22.0866 8.39279 21.1251C9.74463 20.2459 11.5186 20.519 12.5521 21.6974V13.2017C12.5521 11.6081 13.8508 10.31 15.4459 10.31C15.7228 10.31 15.9885 10.3474 16.243 10.4222C16.5911 9.21386 17.707 8.32727 19.0247 8.32727C20.1025 8.32727 21.0459 8.91835 21.5441 9.79374C21.8736 9.66279 22.229 9.59171 22.6073 9.59171C24.2019 9.59171 25.5006 10.8898 25.5006 12.4835V12.5471C25.722 12.4947 25.954 12.4648 26.1895 12.4648C27.7846 12.4648 29.0833 13.7629 29.0833 15.3565V27.2413C29.0799 32.4413 24.8459 36.6763 19.6384 36.6763ZM13.9332 31.6858C15.3148 33.4551 17.3925 34.4689 19.6384 34.4689C23.6291 34.4689 26.8749 31.2259 26.8749 27.2379V15.3528C26.8749 14.9749 26.5678 14.6682 26.1895 14.6682C25.8117 14.6682 25.5045 14.9749 25.5045 15.3528V21.3046C25.5045 21.9144 25.0107 22.4082 24.4003 22.4082C23.79 22.4082 23.2962 21.9144 23.2962 21.3046V12.4835C23.2962 12.1056 22.989 11.7989 22.6107 11.7989C22.2329 11.7989 21.9258 12.1056 21.9258 12.4835V20.7846C21.9258 21.3944 21.4315 21.8882 20.8216 21.8882C20.2113 21.8882 19.7169 21.3944 19.7169 20.7846V11.2153C19.7169 10.8374 19.4103 10.5307 19.032 10.5307C18.6542 10.5307 18.3471 10.8374 18.3471 11.2153V20.7846C18.3471 21.3944 17.8527 21.8882 17.2429 21.8882C16.6325 21.8882 16.1382 21.3944 16.1382 20.7846V13.2017C16.1382 12.8239 15.8316 12.5171 15.4533 12.5171C15.075 12.5171 14.7683 12.8239 14.7683 13.2017V25.3521C14.7683 25.8422 14.4461 26.2729 13.9781 26.4112C13.5106 26.5496 13.005 26.3664 12.7393 25.9547L10.9873 23.2651C10.6879 22.8047 10.0703 22.6737 9.60959 22.9733C9.14939 23.2724 9.01825 23.8896 9.31758 24.35L13.9332 31.6858Z" fill="#26AAD4"/>
<path d="M19.5 45L0 33.7509V11.249L19.5 0L39 11.249V33.7509L19.5 45ZM2.20496 32.4755L19.4961 42.4521L36.7877 32.4755V12.5247L19.4961 2.54759L2.20496 12.5247V32.4755Z" fill="#26AAD4"/>
</svg>
