<?xml version="1.0" encoding="utf-8"?>
<!-- Svg Vector Icons : http://www.onlinewebfonts.com/icon -->
<!DOCTYPE svg PUBLIC "-//W3C//DTD SVG 1.1//EN" "http://www.w3.org/Graphics/SVG/1.1/DTD/svg11.dtd">
<svg version="1.1" xmlns="http://www.w3.org/2000/svg" xmlns:xlink="http://www.w3.org/1999/xlink" x="0px" y="0px" viewBox="0 0 256 256" enable-background="new 0 0 256 256" xml:space="preserve">
<metadata> Svg Vector Icons : http://www.onlinewebfonts.com/icon </metadata>
<g><g><path fill="#000000" d="M128,10C62.9,10,10,62.9,10,128c0,65.1,52.9,118,118,118c65.1,0,118-52.9,118-118C246,62.9,193.1,10,128,10z M173.8,148.4l-37,31.4c-2.5,2.1-5.6,3.2-8.7,3.2s-6.2-1.1-8.7-3.2l-37-31.4c-5.7-4.8-6.4-13.3-1.5-19c4.8-5.7,13.3-6.4,19-1.5l14.9,12.6V86.4c0-7.4,6-13.5,13.5-13.5s13.5,6,13.5,13.5v54.2l14.9-12.6c5.7-4.8,14.2-4.1,19,1.5C180.1,135.1,179.4,143.6,173.8,148.4z"/></g></g>
</svg>