<svg width="48" height="46" viewBox="0 0 48 46" fill="none" xmlns="http://www.w3.org/2000/svg">
<path fill-rule="evenodd" clip-rule="evenodd" d="M0 7C0 5.34315 1.34315 4 3 4H45C46.6569 4 48 5.34315 48 7V37C48 38.6569 46.6569 40 45 40H33C32.4477 40 32 39.5523 32 39C32 38.4477 32.4477 38 33 38H45C45.5523 38 46 37.5523 46 37V7C46 6.44771 45.5523 6 45 6H3C2.44772 6 2 6.44772 2 7V37C2 37.5523 2.44772 38 3 38H15C15.5523 38 16 38.4477 16 39C16 39.5523 15.5523 40 15 40H3C1.34315 40 0 38.6569 0 37V7Z" fill="#9DB5C4"/>
<path fill-rule="evenodd" clip-rule="evenodd" d="M24 30C24.5523 30 25 30.4477 25 31V39L27.4 37.2C27.8418 36.8686 28.4686 36.9582 28.8 37.4C29.1314 37.8418 29.0418 38.4686 28.6 38.8L24.6 41.8C24.2444 42.0667 23.7556 42.0667 23.4 41.8L19.4 38.8C18.9582 38.4686 18.8686 37.8418 19.2 37.4C19.5314 36.9582 20.1582 36.8686 20.6 37.2L23 39V31C23 30.4477 23.4477 30 24 30ZM18 45C18 44.4477 18.4477 44 19 44H29C29.5523 44 30 44.4477 30 45C30 45.5523 29.5523 46 29 46H19C18.4477 46 18 45.5523 18 45Z" fill="#9DB5C4"/>
<path fill-rule="evenodd" clip-rule="evenodd" d="M46 7C46 6.44772 45.5523 6 45 6H3C2.44772 6 2 6.44771 2 7V34L14 23L20 28L34 15L46 25V7ZM12 18C14.2091 18 16 16.2091 16 14C16 11.7909 14.2091 10 12 10C9.79086 10 8 11.7909 8 14C8 16.2091 9.79086 18 12 18Z" fill="#D3E2EB"/>
</svg>
